<?xml version="1.0" encoding="utf-8"?>
<!-- Generator: Adobe Illustrator 27.4.0, SVG Export Plug-In . SVG Version: 6.00 Build 0)  -->
<svg version="1.1" id="Layer_1" xmlns="http://www.w3.org/2000/svg" xmlns:xlink="http://www.w3.org/1999/xlink" x="0px" y="0px"
	 viewBox="0 0 500 500" style="enable-background:new 0 0 500 500;" xml:space="preserve">
<style type="text/css">
	.st0{fill:#FFFFFF;}
	.st1{fill:#2E2E2F;}
</style>
<path class="st0" d="M470,500H30c-16.6,0-30-13.4-30-30V30C0,13.4,13.4,0,30,0h440c16.6,0,30,13.4,30,30v440
	C500,486.6,486.6,500,470,500z"/>
<path class="st1" d="M490.5,46.4c-13.9-8.7-28-16-42.1-21.9c-12.1-4.6-23.5-9.1-34.3-13.4c-10.8-4.4-19.6-9.1-26.2-14
	c-6.7-5-10-11-10-18.1c0-8.7,3.3-15.6,10-20.6c6.7-5,17.3-7.5,31.8-7.5c14.2,0,28.6,3.2,43.4,9.7c14.8,6.4,30.3,15.7,46.5,27.8
	L558.9-81c-18.3-15-40-27.1-64.9-36.2c-25-9.2-48.9-13.7-71.8-13.7c-32.5,0-59.6,5.1-81.5,15.3c-21.9,10.2-38.4,24.1-49.6,41.8
	c-11.2,17.7-16.9,37.4-16.9,59c0,16.2,2.7,30.1,8.1,41.5c5.4,11.4,12.7,21.3,21.9,29.7c9.2,8.3,19.3,15.3,30.3,20.9
	c11,5.6,22.2,10.5,33.4,14.7c12.1,4.6,23.3,8.7,33.7,12.5c10.4,3.7,18.6,7.9,24.7,12.5c6,4.6,9.1,10.4,9.1,17.5c0,8.3-3,14.7-9.1,19
	c-6,4.4-15.5,6.6-28.4,6.6c-11.6,0-23.6-2.7-35.9-8.1c-12.2-5.4-26-13.4-37.6-21.9s-32.9-22.2-53.7-31.5c-20.8-9.4-45.2-14-73.1-14
	c-27.5,0-51.5,4.7-72.1,14c-20.6,9.4-36.6,22.5-48.1,39.3c-11.5,16.9-17.2,36.5-17.2,59c0,19.6,4.6,36.1,13.7,49.6
	c9.2,13.5,20.7,24.7,34.7,33.4c13.9,8.7,28,16,42.1,21.9c12.1,4.6,23.5,9.1,34.3,13.4c10.8,4.4,19.6,9.1,26.2,14
	c6.7,5,10,11,10,18.1c0,8.7-3.3,15.6-10,20.6c-6.7,5-17.3,7.5-31.8,7.5c-14.2,0-28.6-3.2-43.4-9.7c-14.8-6.4-30.3-15.7-46.5-27.8
	l-49.3,69.3c18.3,15,40,27.1,64.9,36.2c25,9.2,48.9,13.7,71.8,13.7c32.5,0,59.6-5.1,81.5-15.3s38.4-24.1,49.6-41.8
	c11.2-17.7,16.9-37.4,16.9-59c0-16.2-2.7-30.1-8.1-41.5c-5.4-11.4-12.7-21.3-21.9-29.7c-9.2-8.3-19.3-15.3-30.3-20.9
	c-11-5.6-22.2-10.5-33.4-14.7c-12.1-4.6-23.3-8.7-33.7-12.5c-10.4-3.7-18.6-7.9-24.7-12.5c-6-4.6-9.1-10.4-9.1-17.5
	c0-8.3,3-14.7,9.1-19c6-4.4,15.5-6.6,28.4-6.6c11.6,0,23.6,2.7,35.9,8.1c12.2,5.4,21.8,11.5,37.7,21.8s32.8,22.2,53.6,31.6
	c20.8,9.4,45.2,14,73.1,14c27.5,0,51.5-4.7,72.1-14c20.6-9.4,36.6-22.5,48.1-39.3c11.5-16.9,17.2-36.5,17.2-59
	c0-19.6-4.6-36.1-13.7-49.6C516,66.3,504.4,55.1,490.5,46.4z"/>
</svg>
